<?xml version="1.0" standalone="no"?>
<!DOCTYPE svg PUBLIC "-//W3C//DTD SVG 20010904//EN"
 "http://www.w3.org/TR/2001/REC-SVG-20010904/DTD/svg10.dtd">
<svg version="1.0" xmlns="http://www.w3.org/2000/svg"
 width="512.000000pt" height="512.000000pt" viewBox="0 0 512.000000 512.000000"
 preserveAspectRatio="xMidYMid meet">

<g transform="translate(0.000000,512.000000) scale(0.100000,-0.100000)"
fill="#FF477E" stroke="none">
<path d="M3455 5021 c-49 -22 -90 -63 -118 -116 -18 -33 -23 -63 -27 -173 l-5
-134 -85 -27 c-47 -15 -118 -44 -158 -65 l-72 -39 -89 86 c-75 73 -98 88 -145
102 -157 46 -309 -71 -308 -235 0 -81 22 -122 114 -216 l82 -84 -29 -60 c-16
-33 -33 -60 -38 -60 -5 0 -55 10 -110 22 -137 29 -406 31 -547 4 -292 -56
-548 -188 -758 -390 -236 -228 -378 -487 -442 -807 -10 -54 -12 -56 -53 -69
-23 -7 -69 -26 -102 -43 -240 -120 -405 -327 -466 -584 -31 -127 -24 -331 16
-453 67 -210 205 -382 396 -492 103 -59 167 -75 238 -58 179 43 250 257 130
394 -21 24 -64 56 -95 72 -156 79 -239 234 -212 399 13 85 39 137 99 200 68
72 133 102 258 119 114 16 144 29 194 85 43 48 67 121 67 205 0 81 30 223 68
319 118 303 388 534 710 608 208 48 467 17 655 -77 239 -120 395 -292 500
-551 14 -35 35 -76 47 -93 30 -42 100 -81 178 -96 83 -17 212 -80 273 -133
150 -130 226 -357 185 -551 -32 -151 -107 -262 -268 -392 -65 -53 -91 -113
-86 -199 5 -86 42 -150 112 -194 45 -27 58 -30 131 -30 78 0 85 2 138 37 297
198 484 576 463 940 -5 91 -24 187 -62 318 -7 23 -4 22 36 -13 121 -103 292
-77 375 57 26 43 30 59 30 120 -1 92 -15 119 -123 228 l-85 87 36 68 c20 38
49 109 66 158 l30 90 133 5 c147 6 182 16 237 71 76 75 95 198 44 290 -52 97
-105 121 -282 128 l-135 6 -14 55 c-7 30 -36 102 -63 159 l-49 104 84 88 c72
73 87 96 101 143 54 184 -117 355 -301 301 -47 -14 -70 -29 -144 -101 l-88
-85 -74 37 c-40 21 -111 50 -158 65 l-85 27 -5 139 c-6 142 -10 157 -57 220
-57 75 -197 106 -288 64z m305 -924 c145 -51 257 -150 320 -282 127 -267 46
-579 -194 -741 -59 -40 -68 -41 -106 -14 -34 24 -190 100 -206 100 -6 0 -39
49 -72 108 -103 185 -255 361 -415 481 l-57 43 33 61 c63 120 198 218 357 262
86 23 246 15 340 -18z"/>
<path d="M2612 2296 c-59 -19 -107 -58 -139 -114 -27 -46 -28 -52 -31 -221 -4
-200 3 -240 56 -302 115 -134 322 -111 405 45 20 37 22 59 25 212 2 102 -1
187 -7 211 -34 126 -185 209 -309 169z"/>
<path d="M1620 2049 c-81 -25 -144 -93 -167 -182 -17 -67 -17 -296 0 -363 17
-64 58 -118 116 -152 39 -23 57 -27 121 -27 83 0 117 14 170 67 62 62 70 92
70 296 0 203 -6 231 -63 290 -63 66 -166 95 -247 71z"/>
<path d="M2590 1044 c-50 -22 -99 -71 -126 -129 -22 -47 -24 -62 -23 -220 0
-182 7 -219 52 -278 13 -18 49 -46 78 -62 134 -72 297 -5 347 144 16 45 16
328 0 389 -15 60 -94 142 -154 160 -56 16 -131 15 -174 -4z"/>
<path d="M1583 789 c-24 -11 -57 -37 -74 -57 -59 -67 -64 -89 -64 -282 0 -204
10 -245 77 -305 54 -49 95 -65 168 -65 102 0 175 46 216 135 22 47 24 62 24
230 0 169 -2 183 -24 231 -54 115 -209 170 -323 113z"/>
</g>
</svg>
