<?xml version="1.0" standalone="no"?>
<!DOCTYPE svg PUBLIC "-//W3C//DTD SVG 20010904//EN"
 "http://www.w3.org/TR/2001/REC-SVG-20010904/DTD/svg10.dtd">
<svg version="1.0" xmlns="http://www.w3.org/2000/svg"
 width="512.000000pt" height="658.000000pt" viewBox="0 0 512.000000 658.000000"
 preserveAspectRatio="xMidYMid meet">

<g transform="translate(0.000000,658.000000) scale(0.100000,-0.100000)"
fill="#FF477E" stroke="none">
<path d="M1355 6465 c-607 -95 -1109 -534 -1284 -1124 -68 -227 -66 -193 -66
-1376 l0 -1070 22 -47 c30 -66 96 -133 162 -165 l56 -28 517 -3 517 -3 3
-1157 3 -1157 28 -56 c32 -67 99 -132 165 -162 73 -33 180 -30 254 6 68 34
139 108 165 175 17 45 18 157 21 2957 1 1877 -1 2928 -8 2963 -19 107 -77 184
-172 231 -59 30 -66 31 -182 30 -67 -1 -157 -7 -201 -14z m-75 -1925 l0 -1260
-320 0 -321 0 3 893 3 892 28 90 c87 281 261 483 520 606 45 21 83 39 85 39 1
0 2 -567 2 -1260z"/>
<path d="M2742 6450 c-71 -36 -115 -82 -151 -160 l-26 -55 0 -1020 c0 -1151
-5 -1080 78 -1170 26 -28 201 -152 457 -323 l415 -277 5 -1555 5 -1555 28 -56
c57 -116 161 -183 287 -183 95 -1 168 32 234 105 88 98 80 -57 86 1693 l5
1549 415 279 c228 154 429 293 447 310 17 16 44 58 60 92 l28 61 3 989 c2 630
-1 1008 -7 1043 -20 108 -77 185 -173 232 -52 27 -72 31 -138 31 -132 0 -230
-65 -289 -190 l-26 -55 -3 -910 -3 -910 -151 -100 c-83 -55 -154 -101 -159
-103 -5 -2 -9 417 -9 976 0 603 -4 999 -10 1031 -20 107 -77 183 -172 230 -52
27 -72 31 -138 31 -132 0 -230 -65 -289 -190 l-26 -55 -3 -1017 -3 -1018 -159
108 -159 107 -1 876 c0 533 -4 897 -10 928 -20 107 -77 183 -172 230 -52 27
-72 31 -138 31 -66 0 -86 -4 -138 -30z"/>
</g>
</svg>
