<?xml version="1.0" standalone="no"?>
<!DOCTYPE svg PUBLIC "-//W3C//DTD SVG 20010904//EN"
 "http://www.w3.org/TR/2001/REC-SVG-20010904/DTD/svg10.dtd">
<svg version="1.0" xmlns="http://www.w3.org/2000/svg"
 width="512.000000pt" height="512.000000pt" viewBox="0 0 512.000000 512.000000"
 preserveAspectRatio="xMidYMid meet">

<g transform="translate(0.000000,512.000000) scale(0.100000,-0.100000)"
fill="#FF477E" stroke="none">
<path d="M2464 5071 c-56 -25 -2261 -1297 -2300 -1327 -49 -36 -84 -116 -84
-188 0 -72 23 -128 71 -172 32 -30 2257 -1321 2326 -1350 46 -20 131 -17 178
5 92 42 2283 1315 2314 1344 49 47 71 100 71 177 0 54 -5 74 -30 117 -16 28
-42 60 -57 71 -47 32 -2272 1312 -2308 1328 -47 19 -132 17 -181 -5z m972
-1013 c475 -271 862 -497 861 -502 -4 -12 -1725 -996 -1741 -995 -20 1 -1730
984 -1729 994 0 11 1711 993 1732 994 7 1 402 -221 877 -491z"/>
<path d="M267 2799 c-77 -18 -143 -73 -173 -145 -34 -82 -9 -208 53 -266 35
-32 2294 -1337 2348 -1356 49 -17 119 -10 172 16 101 52 2281 1317 2301 1335
90 83 97 254 14 340 -63 67 -148 94 -232 76 -28 -6 -57 -17 -64 -25 -8 -8
-490 -284 -1071 -614 l-1056 -600 -1073 614 c-972 557 -1122 638 -1171 635 -5
-1 -27 -5 -48 -10z"/>
<path d="M237 1796 c-96 -35 -157 -124 -157 -230 0 -72 23 -128 71 -173 31
-29 2222 -1302 2314 -1344 57 -26 138 -24 200 5 107 51 2272 1309 2304 1339
49 47 71 100 71 177 0 54 -5 74 -29 115 -31 55 -83 95 -145 115 -52 17 -142 7
-175 -19 -30 -22 -2081 -1191 -2115 -1205 -19 -7 -186 85 -1087 601 -585 335
-1079 615 -1098 621 -44 16 -106 15 -154 -2z"/>
</g>
</svg>
