<?xml version="1.0" standalone="no"?>
<!DOCTYPE svg PUBLIC "-//W3C//DTD SVG 20010904//EN"
 "http://www.w3.org/TR/2001/REC-SVG-20010904/DTD/svg10.dtd">
<svg version="1.0" xmlns="http://www.w3.org/2000/svg"
 width="512.000000pt" height="512.000000pt" viewBox="0 0 512.000000 512.000000"
 preserveAspectRatio="xMidYMid meet">

<g transform="translate(0.000000,512.000000) scale(0.100000,-0.100000)"
fill="#FF477E" stroke="none">
<path d="M630 5020 c-257 -67 -463 -275 -530 -534 -20 -78 -20 -107 -20 -1926
0 -1811 0 -1848 20 -1926 65 -260 273 -467 534 -534 78 -20 107 -20 1926 -20
1811 0 1848 0 1926 20 260 65 467 273 534 534 19 75 20 110 20 678 0 516 -2
609 -16 671 -44 192 -169 364 -343 467 -77 46 -191 87 -265 95 -110 13 -117
-2 77 194 237 240 301 344 335 546 27 158 -8 337 -95 488 -27 47 -134 161
-442 470 -223 225 -434 429 -468 453 -72 52 -164 96 -254 120 -96 26 -271 24
-372 -4 -164 -46 -224 -89 -454 -315 -162 -160 -182 -177 -186 -156 -3 13 -10
57 -16 98 -38 252 -234 476 -496 568 l-80 28 -630 2 c-596 2 -634 1 -705 -17z
m1285 -488 c64 -29 91 -55 123 -117 l27 -50 3 -1775 c2 -1253 -1 -1790 -9
-1828 -15 -72 -61 -130 -134 -167 l-59 -30 -551 0 -551 0 -60 30 c-70 36 -117
98 -133 178 -8 36 -11 576 -9 1818 l3 1765 30 59 c35 68 88 111 162 131 37 10
165 13 578 11 530 -2 530 -2 580 -25z m1593 -211 c51 -26 780 -768 809 -824
33 -60 39 -122 19 -193 l-16 -59 -878 -872 -877 -872 -3 1062 -2 1062 327 328
c325 325 362 358 432 384 47 17 139 9 189 -16z m852 -2262 c70 -15 128 -62
165 -134 l30 -59 0 -551 0 -551 -30 -60 c-36 -70 -97 -116 -175 -133 -51 -11
-1821 -17 -1832 -6 -2 3 4 35 13 72 10 38 18 88 18 113 l1 45 637 637 638 638
242 0 c137 0 264 -5 293 -11z"/>
<path d="M1209 1533 c-62 -32 -113 -93 -130 -156 -43 -161 97 -323 263 -304
194 23 286 251 159 398 -74 88 -191 112 -292 62z"/>
</g>
</svg>
